<svg viewBox="0 0 500 200" fill="none" xmlns="http://www.w3.org/2000/svg">
  <rect width="500" height="200" fill="#f0f9ff"/>

  <!-- Ground line -->
  <line x1="130" y1="168" x2="370" y2="168" stroke="rgba(2,132,199,0.25)" stroke-width="2" stroke-linecap="round"/>

  <!-- Shadow under body -->
  <ellipse cx="245" cy="171" rx="88" ry="5" fill="rgba(2,132,199,0.07)"/>

  <!-- Head -->
  <circle cx="310" cy="115" r="16" stroke="#0284c7" stroke-width="2.5" fill="rgba(2,132,199,0.08)"/>
  <!-- Neck + torso (horizontal) -->
  <line x1="295" y1="122" x2="240" y2="145" stroke="#0284c7" stroke-width="2.5" stroke-linecap="round"/>
  <!-- Front arm (bent elbow) -->
  <line x1="288" y1="130" x2="274" y2="150" stroke="#0284c7" stroke-width="2.5" stroke-linecap="round"/>
  <line x1="274" y1="150" x2="280" y2="168" stroke="#0284c7" stroke-width="2.5" stroke-linecap="round"/>
  <!-- Back arm -->
  <line x1="255" y1="140" x2="240" y2="155" stroke="#0284c7" stroke-width="2.5" stroke-linecap="round"/>
  <line x1="240" y1="155" x2="245" y2="168" stroke="#0284c7" stroke-width="2.5" stroke-linecap="round"/>
  <!-- Hips -->
  <circle cx="240" cy="145" r="4" fill="#0284c7"/>
  <!-- Legs straight back -->
  <line x1="237" y1="148" x2="210" y2="158" stroke="#0284c7" stroke-width="2.5" stroke-linecap="round"/>
  <line x1="210" y1="158" x2="183" y2="164" stroke="#0284c7" stroke-width="2.5" stroke-linecap="round"/>
  <line x1="183" y1="164" x2="178" y2="168" stroke="#0284c7" stroke-width="2.5" stroke-linecap="round"/>
  <!-- Joints -->
  <circle cx="274" cy="150" r="3.5" fill="#0284c7"/>
  <circle cx="240" cy="155" r="3.5" fill="#0284c7"/>
  <circle cx="210" cy="158" r="3"   fill="rgba(2,132,199,0.7)"/>

  <!-- Energy lines (right of head) -->
  <line x1="332" y1="104" x2="354" y2="97"  stroke="rgba(2,132,199,0.28)" stroke-width="1.5" stroke-linecap="round" stroke-dasharray="3,4"/>
  <line x1="336" y1="115" x2="362" y2="115" stroke="rgba(2,132,199,0.28)" stroke-width="1.5" stroke-linecap="round" stroke-dasharray="3,4"/>
  <line x1="332" y1="126" x2="354" y2="133" stroke="rgba(2,132,199,0.28)" stroke-width="1.5" stroke-linecap="round" stroke-dasharray="3,4"/>

  <!-- Effort drops above head -->
  <circle cx="322" cy="97"  r="2"   fill="rgba(2,132,199,0.22)"/>
  <circle cx="330" cy="90"  r="1.5" fill="rgba(2,132,199,0.18)"/>
  <circle cx="315" cy="93"  r="1.5" fill="rgba(2,132,199,0.16)"/>
</svg>
